<?xml version="1.0"?>
<svg width="384" height="512" xmlns="http://www.w3.org/2000/svg" xmlns:svg="http://www.w3.org/2000/svg">
 <!--!Font Awesome Free 6.5.1 by @fontawesome - https://fontawesome.com License - https://fontawesome.com/license/free Copyright 2024 Fonticons, Inc.-->
 <g class="layer">
  <title>Layer 1</title>
  <path d="m144.7,98.7c-21,34.1 -33.1,74.3 -33.1,117.3c0,98 62.8,181.4 150.4,211.7c-12.4,2.8 -25.3,4.3 -38.6,4.3c-96.8,0 -175.4,-78.7 -175.4,-176c0,-68.9 39.4,-128.4 96.8,-157.3l-0.1,0zm62.1,-66c-115.7,8.5 -206.8,105.2 -206.8,223.3c0,123.7 100,224 223.5,224c47.8,0 92,-15 128.4,-40.6c1.9,-1.3 3.7,-2.7 5.5,-4c4.8,-3.6 9.4,-7.4 13.9,-11.4c2.7,-2.4 5.3,-4.8 7.9,-7.3c5,-4.9 6.3,-12.5 3.1,-18.7s-10.1,-9.7 -17,-8.5c-3.7,0.6 -7.4,1.2 -11.1,1.6c-5,0.5 -10.1,0.9 -15.3,1c-1.2,0 -2.5,0 -3.7,0c-0.1,0 -0.2,0 -0.3,0c-96.8,-0.2 -175.2,-78.9 -175.2,-176c0,-54.8 24.9,-103.7 64.1,-136c1,-0.9 2.1,-1.7 3.2,-2.6c4,-3.2 8.2,-6.2 12.5,-9c3.1,-2 6.3,-4 9.6,-5.8c6.1,-3.5 9.2,-10.5 7.7,-17.3s-7.3,-11.9 -14.3,-12.5c-3.6,-0.3 -7.1,-0.5 -10.7,-0.6c-2.7,-0.1 -5.5,-0.1 -8.2,-0.1c-3.3,0 -6.5,0.1 -9.8,0.2c-2.3,0.1 -4.6,0.2 -6.9,0.4l-0.1,-0.1z" fill="#000000" id="svg_1"/>
 </g>
</svg>