<?xml version="1.0"?>
<svg width="24" height="24" xmlns="http://www.w3.org/2000/svg" xmlns:svg="http://www.w3.org/2000/svg">
 <g class="layer">
  <title>Layer 1</title>
  <path d="m12,3l0,1m0,16l0,1m-8,-9l-1,0m3.31,-5.69l-0.81,-0.81m12.19,0.81l0.81,-0.81m-12.19,12.19l-0.81,0.81m12.19,-0.81l0.81,0.81m2.5,-6.5l-1,0m-4,0c0,2.21 -1.79,4 -4,4c-2.21,0 -4,-1.79 -4,-4c0,-2.21 1.79,-4 4,-4c2.21,0 4,1.79 4,4z" id="svg_1" stroke="#000000" stroke-linecap="round" stroke-linejoin="round" stroke-width="2"/>
 </g>
</svg>