<?xml version="1.0"?>
<svg width="512" height="512" xmlns="http://www.w3.org/2000/svg" xmlns:svg="http://www.w3.org/2000/svg">
 <!--!Font Awesome Free 6.5.1 by @fontawesome - https://fontawesome.com License - https://fontawesome.com/license/free Copyright 2024 Fonticons, Inc.-->
 <g class="layer">
  <title>Layer 1</title>
  <path d="m0,416c0,17.7 14.3,32 32,32l54.7,0c12.3,28.3 40.5,48 73.3,48s61,-19.7 73.3,-48l246.7,0c17.7,0 32,-14.3 32,-32s-14.3,-32 -32,-32l-246.7,0c-12.3,-28.3 -40.5,-48 -73.3,-48s-61,19.7 -73.3,48l-54.7,0c-17.7,0 -32,14.3 -32,32zm128,0a32,32 0 1 1 64,0a32,32 0 1 1 -64,0zm192,-160a32,32 0 1 1 64,0a32,32 0 1 1 -64,0zm32,-80c-32.8,0 -61,19.7 -73.3,48l-246.7,0c-17.7,0 -32,14.3 -32,32s14.3,32 32,32l246.7,0c12.3,28.3 40.5,48 73.3,48s61,-19.7 73.3,-48l54.7,0c17.7,0 32,-14.3 32,-32s-14.3,-32 -32,-32l-54.7,0c-12.3,-28.3 -40.5,-48 -73.3,-48zm-160,-48a32,32 0 1 1 0,-64a32,32 0 1 1 0,64zm73.3,-64c-12.3,-28.3 -40.5,-48 -73.3,-48s-61,19.7 -73.3,48l-86.7,0c-17.7,0 -32,14.3 -32,32s14.3,32 32,32l86.7,0c12.3,28.3 40.5,48 73.3,48s61,-19.7 73.3,-48l214.7,0c17.7,0 32,-14.3 32,-32s-14.3,-32 -32,-32l-214.7,0z" fill="#ffffff" id="svg_1"/>
 </g>
</svg>